<svg width="250" height="250" xmlns="http://www.w3.org/2000/svg">
    <rect width="100%" height="100%" fill="#e25822"/>
    <g stroke="null">
        <g stroke="null" transform="matrix(10.3008 0 0 10.3008 -79.7184 -80.347)">
            <path fill="#ffffff" stroke="null" d="m27.21573,12.59335c-1.7,-1.7 -9,4 -9,4l-4,0l-2,2l2,2l1,1l-2,2l3,3l2,-2l1,1l2,2l2,-2l0,-4c0,0 5.7,-7.3 4,-9zm-12.3,7.3l-1.3,-1.3l1,-1l2.6,0l-2.3,2.3zm7.3,5.3l-1,1l-1.3,-1.3l2.3,-2.3l0,2.6zm1,-7.6c-0.6,0 -1,-0.4 -1,-1c0,-0.3 0.1,-0.5 0.3,-0.7c0.2,-0.2 0.4,-0.3 0.7,-0.3c0.6,0 1,0.4 1,1s-0.4,1 -1,1z"/>
            <path fill="#ffffff" stroke="null" d="m13.21573,26.59335l-1,0l0,1l1,0l0,-1zm1,-1l-1,0l0,1l1,0l0,-1zm-1,-1l-1,0l0,1l1,0l0,-1zm2,2l-1,0l0,1l1,0l0,-1z"/>
        </g>
    </g>
</svg>
